<?xml version="1.0" encoding="UTF-8" standalone="no"?>
<!-- Created with Inkscape (http://www.inkscape.org/) -->

<svg
   xmlns:dc="http://purl.org/dc/elements/1.1/"
   xmlns:cc="http://creativecommons.org/ns#"
   xmlns:rdf="http://www.w3.org/1999/02/22-rdf-syntax-ns#"
   xmlns:svg="http://www.w3.org/2000/svg"
   xmlns="http://www.w3.org/2000/svg"
   xmlns:sodipodi="http://sodipodi.sourceforge.net/DTD/sodipodi-0.dtd"
   xmlns:inkscape="http://www.inkscape.org/namespaces/inkscape"
   width="59.289135mm"
   height="77.418068mm"
   viewBox="0 0 59.289135 77.41807"
   version="1.1"
   id="svg17497"
   inkscape:version="0.92.2 (5c3e80d, 2017-08-06)"
   sodipodi:docname="binaryTlogowhite.svg">
  <defs
     id="defs17491" />
  <sodipodi:namedview
     id="base"
     pagecolor="#ffffff"
     bordercolor="#666666"
     borderopacity="1.0"
     inkscape:pageopacity="0.0"
     inkscape:pageshadow="2"
     inkscape:zoom="0.7"
     inkscape:cx="250.05872"
     inkscape:cy="118.74555"
     inkscape:document-units="mm"
     inkscape:current-layer="g22196"
     showgrid="false"
     inkscape:window-width="1280"
     inkscape:window-height="737"
     inkscape:window-x="-8"
     inkscape:window-y="-8"
     inkscape:window-maximized="1"
     inkscape:measure-start="0,0"
     inkscape:measure-end="0,0"
     showguides="true"
     inkscape:guide-bbox="true">
    <sodipodi:guide
       position="-99.946162,22.075884"
       orientation="1,0"
       id="guide22031"
       inkscape:locked="false" />
    <sodipodi:guide
       position="-99.946163,22.075883"
       orientation="1,0"
       id="guide22033"
       inkscape:locked="false" />
    <sodipodi:guide
       position="29.764841,63.042424"
       orientation="1,0"
       id="guide22035"
       inkscape:locked="false" />
    <sodipodi:guide
       position="-99.946164,22.075882"
       orientation="1,0"
       id="guide22110"
       inkscape:locked="false" />
    <sodipodi:guide
       position="4.6806856,52.933368"
       orientation="0,1"
       id="guide22181"
       inkscape:locked="false" />
  </sodipodi:namedview>
  <metadata
     id="metadata17494">
    <rdf:RDF>
      <cc:Work
         rdf:about="">
        <dc:format>image/svg+xml</dc:format>
        <dc:type
           rdf:resource="http://purl.org/dc/dcmitype/StillImage" />
        <dc:title></dc:title>
      </cc:Work>
    </rdf:RDF>
  </metadata>
  <g
     inkscape:label="Layer 1"
     inkscape:groupmode="layer"
     id="layer1"
     transform="translate(10.182004,-124.66659)">
    <flowRoot
       xml:space="preserve"
       id="flowRoot22112"
       style="font-style:normal;font-weight:normal;font-size:40px;line-height:1.25;font-family:sans-serif;letter-spacing:0px;word-spacing:0px;fill:#000000;fill-opacity:1;stroke:none"
       transform="matrix(0.26458333,0,0,0.26458333,-62.01965,129.63196)"><flowRegion
         id="flowRegion22114"><rect
           id="rect22116"
           width="580.82538"
           height="311.12698"
           x="41.428574"
           y="572.23828" /></flowRegion><flowPara
         id="flowPara22118"></flowPara></flowRoot>    <g
       id="g22196"
       style="fill:#ffffff;fill-opacity:1">
      <path
         inkscape:connector-curvature="0"
         id="path22133"
         d="m 48.963825,185.1351 0.143306,-34.1484 -24.973974,-14.55875 c 0,-1.68154 -1.82e-4,-3.75419 -1.82e-4,-4.96481 0,-1.23679 -1.99e-4,-2.17593 -2e-4,-2.71187 0,-0.16026 3.23e-4,-0.20697 3.23e-4,-0.29228 0,-0.0941 -1.73e-4,-0.15656 -1.73e-4,-0.18868 0,-9e-4 3.2e-4,-0.007 3.2e-4,-0.008 0,-0.002 -2.04e-4,-0.003 -2.04e-4,-0.005 0,-0.004 1.16e-4,-0.0128 1.16e-4,-0.0126 0,0 -6.6e-4,-3e-4 -6.6e-4,-3e-4 0,-7e-4 -9.099502,-10e-4 -9.099502,-5.9e-4 0,7e-5 -2.96e-4,5.9e-4 -2.96e-4,6.6e-4 0,3.6e-4 1.36e-4,0.003 1.36e-4,0.003 0,0.003 -3.44e-4,0.008 -3.43e-4,0.0149 0,0.0199 2.64e-4,0.13187 2.64e-4,0.18317 0,0.004 -1.16e-4,0.009 -1.16e-4,0.0126 0,0.0853 3.37e-4,0.13204 3.37e-4,0.29257 10e-7,0.53593 -4.6e-4,1.47479 -4.59e-4,2.71157 0,2.47357 6.68e-4,6.1371 6.68e-4,10.14453 0,8.01485 -1.94e-4,17.40457 -1.94e-4,21.39858 l 9.099798,-7e-5 c 0,-2.99473 2.41e-4,-9.83708 2.41e-4,-16.04474 l 15.85169,9.24087 -0.09936,23.64114 -20.523149,11.73483 -20.4248085,-11.90755 0.11128844,-30.50242 -9.09990594,-0.0333 -0.13079,35.7532 29.500275,17.1973 z"
         style="color:#000000;font-style:normal;font-variant:normal;font-weight:normal;font-stretch:normal;font-size:medium;line-height:normal;font-family:sans-serif;font-variant-ligatures:normal;font-variant-position:normal;font-variant-caps:normal;font-variant-numeric:normal;font-variant-alternates:normal;font-feature-settings:normal;text-indent:0;text-align:start;text-decoration:none;text-decoration-line:none;text-decoration-style:solid;text-decoration-color:#000000;letter-spacing:normal;word-spacing:normal;text-transform:none;writing-mode:lr-tb;direction:ltr;text-orientation:mixed;dominant-baseline:auto;baseline-shift:baseline;text-anchor:start;white-space:normal;shape-padding:0;clip-rule:nonzero;display:inline;overflow:visible;visibility:visible;opacity:1;isolation:auto;mix-blend-mode:normal;color-interpolation:sRGB;color-interpolation-filters:linearRGB;solid-color:#000000;solid-opacity:1;vector-effect:none;fill:#ffffff;fill-opacity:1;fill-rule:evenodd;stroke:none;stroke-width:9.09999943;stroke-linecap:butt;stroke-linejoin:miter;stroke-miterlimit:4;stroke-dasharray:none;stroke-dashoffset:0;stroke-opacity:1;paint-order:stroke fill markers;color-rendering:auto;image-rendering:auto;shape-rendering:auto;text-rendering:auto;enable-background:accumulate" />
      <path
         sodipodi:nodetypes="cc"
         inkscape:connector-curvature="0"
         id="path22140"
         d="m 7.1847624,138.65178 10e-7,34.85403"
         style="fill:#ffffff;fill-opacity:1;stroke:#ffffff;stroke-width:9.10000038;stroke-linecap:butt;stroke-linejoin:miter;stroke-miterlimit:4;stroke-dasharray:none;stroke-opacity:1" />
      <path
         style="fill:#ffffff;fill-opacity:1;stroke:#ffffff;stroke-width:1.47926772;stroke-linecap:butt;stroke-linejoin:miter;stroke-miterlimit:4;stroke-dasharray:none;stroke-opacity:1"
         d="m 7.1847628,135.061 2e-7,41.65761"
         id="path22185"
         inkscape:connector-curvature="0"
         sodipodi:nodetypes="cc" />
      <path
         sodipodi:nodetypes="cc"
         inkscape:connector-curvature="0"
         id="path22187"
         d="M 19.582837,124.66659 V 166.3242"
         style="fill:#ffffff;fill-opacity:1;stroke:#ffffff;stroke-width:1.47926772;stroke-linecap:butt;stroke-linejoin:miter;stroke-miterlimit:4;stroke-dasharray:none;stroke-opacity:1" />
      <path
         style="fill:#ffffff;fill-opacity:1;stroke:#ffffff;stroke-width:1.24614692;stroke-linecap:butt;stroke-linejoin:miter;stroke-miterlimit:4;stroke-dasharray:none;stroke-opacity:1"
         d="m -6.3085321,145.75767 v 29.56237"
         id="path22189"
         inkscape:connector-curvature="0"
         sodipodi:nodetypes="cc" />
    </g>
  </g>
</svg>
